<?xml version='1.0' encoding='utf-8'?>
<svg xmlns="http://www.w3.org/2000/svg" viewBox="0 0 1e3 1e3"> <g fill-rule="evenodd" stroke-width=".5"> <path d="m0 500v-500h1e3v1e3h-1e3v-500zm529.2-448-0.2-2 2.8 1.5q2.7 1.5 12.2 18.5t13.5 28 3.5 21-4.5 17-8.5 11-1 11 3.5 15.5-2.3 13.3q-2.2 4.7-2.2 5v0.2l5.8 7q5.7 7 7.7 12.5t1.5 15-7 24.5-7 16l-2.5 5-0.3 0.2-0.2 0.3 12.5 0.5q12.5 0.5 20 1l7.5 0.5v0.5l17 2.8q17 2.7 33.5 8.7t39.7 18.7q23.3 12.8 40 23.6 16.8 10.7 22.3 11.7t23.3 0.3q17.7-0.8 28 5.4 10.2 6.3 11 7 0.7 0.8 0.2 6.8t-5.2 9.8q-4.8 3.7-7.3 4.2t-4.5 0.8l-2 0.2 0.2 1 0.3 1 0.3 0.2 0.4 0.6 0.3 0.2 1 2 0.3 0.2 0.2 0.3 48 61q48 61 48.2 61.3l0.6 0.4 0.4 0.6 0.3 0.2 1 2 0.3 0.2 0.4 0.6 0.6 0.4 0.4 0.6 0.3 0.2 0.3 0.5 0.2 0.5v0.2q0 0.3 17.2 21.6 17.3 21.2 18.3 28.2t-3.5 14.5-13.2 17.3q-8.8 9.7-22.8 20.2t-29.5 17.5-33.5 11-38 4.5-34-1.5-32-8-30-13-21.8-15.3q-9.7-8.2-18.7-18.7l-9-10.5-0.3-0.2-0.4-0.6-0.3-0.2-1-2-0.3-0.2-0.4-0.6-0.3-0.2-1-2-0.3-0.2-0.2-0.3v-0.5h-0.2q-0.3 0-0.8-1t-1-5.5 1.5-8 50.7-64.5l48.8-61v-0.5l0.2-0.3 0.6-0.4 0.4-0.6 0.3-0.2 1-2 0.3-0.2 0.4-0.6 0.3-0.2 16-20q16-20 16.5-21l0.5-1 0.3-0.2 0.4-0.6 0.3-0.2 1-2 0.3-0.2 0.4-0.6 0.3-0.2 0.3-1 0.2-1-7-0.2q-7-0.3-10.5-0.8t-11.5-3-27.8-13.8q-19.7-11.2-37.4-22.4-17.8-11.3-44.3-18.8t-51.5-8.5-29.5-1.7l-4.5-0.8-0.2 79q-0.3 79-0.6 92l-0.2 13v60l0.8 38.5q0.7 38.5 7.7 54t8.5 20.5 1 12.5-1 9.5-0.8 2h-0.2l-3.8 6.5q-3.7 6.5-7.2 9.5t-1 12 2 17.5-4 13.5-3.8 5.2l-0.2 0.3 6.2 6.3q6.3 6.2 6.6 6.4l0.4 0.6 0.3 0.2 3 6 0.3 1 0.2 1 0.2 0.5q0.3 0.5 0.6 1l0.2 0.5 0.8 8.5q0.7 8.5-4.8 23t-6.5 16.5-1.5 3l-0.5 1-0.3 1.5-0.2 1.5 14.5 4.2q14.5 4.3 31.5 12.8t28 17.5 18.2 17.3q7.3 8.2 11.8 17.7t5.5 14 0.5 12-4.8 11.7q-4.2 4.3-15.2 9.3t-31.5 9.5-44.5 6.5-49.5 1.5-35.7-1.8q-10.3-1.2-10.6-1.2h-0.2l-3-0.2-3-0.3-3-0.5q-3-0.5-11.5-2t-24-6.5-23.3-9.7q-7.7-4.8-10.2-8.8t-1.5-13.5 5-18.5 11-17.5 18.7-18.3q11.8-9.7 28.8-18.2t32-12.8l15-4.2v-3l-0.5-0.2-0.5-0.3v-0.5l-0.2-0.5q-0.3-0.5-0.6-0.7-0.2-0.3-6-14.6-5.7-14.2-6.2-21.7t2.5-15.5 9.5-15 3-12.5-4-13.5 2-17-1.8-13.2q-4.2-4.3-7.4-10.6-3.3-6.2-3.8-15.7t3.8-20.5l4.2-11 0.2-1 0.3-1 1.5-3q0.5-1 3-6t3.8-159l1.2-154-2 0.2-2 0.3-2 0.5q-2 0.5-24 7.8l-22 7.2h-1v0.2q0 0.3-23.5 12.8t-36.5 21-48.2 37.8q-35.3 29.2-47.6 37-12.2 7.7-25.7 12.2l-16.5 5.5-0.2 0.3-0.6 0.4-0.2 0.3 0.2 0.3 0.3 0.2 1 2 0.3 0.2 0.4 0.6 0.6 0.4 0.2 0.3 38.8 49.3q38.7 49.2 39.2 50.2l0.5 1 0.3 0.2 0.4 0.6 0.6 0.4 0.4 0.6 0.6 0.4 0.4 0.6 0.3 0.2 0.3 0.5 0.2 0.5 35.8 45.5q35.7 45.5 36.7 48t0.5 7.5-7.8 15.2q-7.2 10.3-19.7 22.8t-27.5 22-32 16-36.5 10-43.5 3-42.5-4.5-35.5-11.5-30.2-16.8q-13.3-9.2-25.3-21.2t-15.5-17-4-6l-0.5-1-0.3-0.2-0.4-0.6-0.6-0.4-0.4-0.6-0.3-0.2-1-2-0.3-1-0.2-1-0.5-0.2q-0.5-0.3-0.5-0.6v-0.2l-0.2-0.5q-0.3-0.5-0.3-5.5t1-7.5 60.3-77l59.2-74.5 0.2-0.5q0.3-0.5 0.6-0.5h0.2l0.2-0.5q0.3-0.5 0.6-0.5h0.2l0.2-0.5q0.3-0.5 0.8-1.5l0.5-1 0.3-0.2 0.4-0.6 0.6-0.4 0.4-0.6 0.3-0.2 0.5-1q0.5-1 13.5-17.5l13-16.5 0.3-0.2 0.4-0.6 0.6-0.4 0.4-0.6 0.3-0.2 1-2 0.3-1 0.2-1-6-0.2q-6-0.3-17.8-7-11.7-6.8-12.7-11.3t1.5-9.5 6.8-7.2q4.2-2.3 19.7-5.3t26.5-8.5 33.8-24.2q22.7-18.8 44-35.6 21.2-16.7 40.7-28.7t40.5-21.5 48-17.5 30-8 4 0.5l1 0.5 1.5 0.3 1.5 0.2-0.2-5q-0.3-5-1.8-8t-8-18.5-7-24.5 1.2-14l1.8-5v-0.2q0-0.3 0.5-0.6l0.5-0.2 0.2-1 0.3-1 0.3-0.2 0.4-0.6 0.3-0.2 0.5-1q0.5-1 4.5-5t4-5.5-2.5-8.5-1.5-13.5 4.5-12l3.5-5.5 0.3-0.2 0.2-0.3-5.2-4.3q-5.3-4.2-9.3-11.7t-4-18 6.5-26 18.8-35.7q12.2-20.3 13-21 0.7-0.8 1.2 36.2t2.2 40.8q1.8 3.7 3.3 4.2t4-0.5 4.7-1.3q2.3-0.2 2.3-11.2t-4.5-30-4.8-21z" fill="#fff" stroke="#fff"/> <g fill="#fefefe" stroke="#fefefe"> <path d="m248.2 479.2 0.3-0.2 0.3 0.2 0.4 0.6 0.3 0.2 1 2 0.3 0.2 0.4 0.6 0.6 0.4 0.4 0.6 0.6 0.4 0.4 0.6 0.3 0.2 33 42q33 42 33.3 42h0.2l27.8 35.5q27.7 35.5 28 35.7l0.4 0.6 0.6 0.4 0.4 0.6 0.3 0.2 1 2 0.3 0.2 0.4 0.6 0.6 0.4 0.4 0.6 0.3 0.2 0.3 1 0.2 1-1-0.2-1-0.3-2-1-4.5-1.5q-1.5-0.5-9.5-2.8l-8-2.2v-0.5l-2-0.5q-2-0.5-24-4.5t-52-5.7l-30-1.8v-115l0.2-16 0.3-16 0.3-0.2 0.4-0.6z"/> <path d="m239.2 475.2 0.3-0.2 0.3 31.5 0.2 31.5v88h-0.5l-0.3 0.2-0.2 0.3-3 1h-1l-0.2-0.3-0.3-0.2-0.3 0.2q-0.2 0.3-3.2 1-3 0.8-3.2 1.8-0.3 1-3.6 1.5-3.2 0.5-4 2.5-0.7 2-2.2 3.5t-7.8 3.7q-6.2 2.3-15.2 0.3t-7-3-5-3.5-19-1.5-32 6l-20 5-2 1-3 1h-3l0.2-0.3 0.3-0.2 1-2 0.3-0.2 0.4-0.6 0.6-0.4 0.4-0.6 0.6-0.4 0.4-0.6 0.3-0.2 0.5-1q0.5-1 55.8-71.5l55.2-70.5 0.5-0.2q0.5-0.3 7.3-9l6.7-8.8 0.3-0.2 0.4-0.6 0.6-0.4 0.4-0.6 0.6-0.4 0.4-0.6 0.6-0.4 0.4-0.6 0.6-0.4 0.4-0.6z"/> <path d="m780 393.5 0.5-4.5 0.3 0.2 0.4 0.6 0.6 0.4 0.4 0.6 0.6 0.4 0.4 0.6 0.6 0.4 0.4 0.6 0.3 0.2 1 2 44 55q44 55 44.3 55.5l0.2 0.5v0.2q0 0.3 0.5 0.6l0.5 0.2 1.8 2.5q1.7 2.5 2 2.7l0.2 0.3 8.2 10.7q8.3 10.8 8.6 11l0.4 0.6 0.6 0.4 0.4 0.6 0.3 0.2 1 2 0.3 0.2 0.4 0.6 0.6 0.4 0.4 0.6 0.3 0.2v2l-0.3-0.2-0.2-0.3-2-1-3-1-2-1-1.5-0.5q-1.5-0.5-13.5-3.8l-12-3.2v-0.5l-7.5-1.5q-2.5-0.5-8-1.5t-38-4-33-17.3l-0.5-14.2 0.2-47q0.3-47 0.8-51.5z"/> <path d="m770.8 385.8 0.2-0.3 1-0.3 1-0.2v104l-0.2 4q-0.3 4-0.6 16l-0.2 12-0.5 0.2-0.5 0.3-5 0.3q-5 0.2-4.8 1.2 0.3 1-3 1.8-3.2 0.7-7.7 2.7t-4 3.3q0.5 1.2-0.5 1.4-1 0.3-9.5 0.3t-8-1.3q0.5-1.2-8-2.2t-8.5-2-10.5 0.2q-10.5 1.3-26.5 5.3l-16 4-6 2-1 0.3-1 0.2 0.2-1 0.3-1 0.3-0.2 0.4-0.6 0.6-0.4 0.4-0.6 0.6-0.4 0.4-0.6 0.3-0.2 1-2 39.5-50q39.5-50 39.8-51l0.2-1h0.5l0.3-0.2 0.4-0.6 0.3-0.2 15-19q15-19 15.3-19.2l0.4-0.6 0.6-0.4 0.4-0.6 0.6-0.4 0.4-0.6 0.3-0.2 1-2 0.3-0.2z"/> </g> <path d="m581 276v-1h3l17 2.8q17 2.7 33.5 8.7t39.7 18.7q23.3 12.8 40 23.6 16.8 10.7 22.3 11.7t23.3 0.3q17.7-0.8 28 5.4 10.2 6.3 11 7 0.7 0.8 0.2 6.8t-5.2 9.8q-4.8 3.7-7.3 4.2t-4.5 0.8l-2 0.2 0.2 1 0.3 1 0.3 0.2 0.4 0.6 0.3 0.2 1 2 0.3 0.2 0.2 0.3 48 61q48 61 48.2 61.3l0.6 0.4 0.4 0.6 0.3 0.2 1 2 0.3 0.2 0.4 0.6 0.6 0.4 0.4 0.6 0.3 0.2 0.3 0.5 0.2 0.5-0.5 0.2-0.5 0.3h-2l-0.2-0.3-0.6-0.4-0.4-0.6-0.6-0.4-0.4-0.6-0.6-0.4-0.2-0.3h-2l-0.2 0.3-0.3 0.2h-0.5l-0.2-0.5q-0.3-0.5-0.6-0.5h-0.2l-0.2-0.5q-0.3-0.5-44.3-55.5l-44-55-1-2-0.3-0.2-0.4-0.6-0.6-0.4-0.4-0.6-0.6-0.4-0.4-0.6-0.6-0.4-0.4-0.6-0.3-0.2-0.5 4.5q-0.5 4.5-0.8 51.5l-0.2 47h-0.5l-0.3-2.5-0.2-2.5h-2v2h-3v-104l-1 0.2-1 0.3-0.2 0.3-0.3 0.2-1 2-0.3 0.2-0.4 0.6-0.6 0.4-0.4 0.6-0.6 0.4-0.4 0.6q-0.3 0.2-15.3 19.2l-15 19-0.3 0.2-0.4 0.6-0.3 0.2h-0.5l-0.5 0.2-0.5 0.3-0.2 0.3-0.3 0.2-0.3-0.2-0.2-0.3h-2l-0.2 0.3-0.6 0.4-0.4 0.6-0.6 0.4-0.4 0.6-0.3 0.2-0.3-1.5-0.2-1.5v-0.5l0.2-0.3 0.6-0.4 0.4-0.6 0.3-0.2 1-2 0.3-0.2 0.4-0.6 0.3-0.2 16-20q16-20 16.5-21l0.5-1 0.3-0.2 0.4-0.6 0.3-0.2 1-2 0.3-0.2 0.4-0.6 0.3-0.2 0.3-1 0.2-1-7-0.2q-7-0.3-10.5-0.8t-11.5-3-27.8-13.8q-19.7-11.2-37.4-22.4-17.8-11.3-44.3-18.8t-51.5-8.5-29.5-1.7l-4.5-0.8-0.2 79q-0.3 79-0.6 92l-0.2 13-0.5 0.2-0.5 0.3-0.2 0.3-0.3 0.2-0.3-2-0.2-2h-3l-0.2-3q-0.3-3-1.8-11.5t-2-7.5-1.5 0-3.3-1.5q-2.2-0.5-2.4 0.5-0.3 1-1.3-3t-1.5-3-1.2-2.5q-0.8-3.5-1.8-3.5h-1l-0.2-2q-0.3-2-0.8-19t0-27.5-1-21-1.5-33.5-1.3-27l-1.2-4-1-0.2-1-0.3h-3q-3 0-6.5 1.3l-3.5 1.2-2 0.2-2 0.3-2 0.5q-2 0.5-24 7.8l-22 7.2h-1l-0.8-1q-0.7-1-2.7-1.5t-2.5-2-1.5-1.5-0.3-0.5q0.8-0.5-0.2-2.3-1-1.7-2.5-2.7t1-2.3q2.5-1.2 2.7-4.2 0.3-3 3-5.8 2.8-2.7 27.8-11.2t30-10 7-1.8l2-0.2h3.5q3.5 0 4.5-5t12-5.8q11-0.7 12.2 3 1.3 3.8 1.6 5.3l0.2 1.5h2l0.2-1 0.3-1 1.7-1.8q1.8-1.7 4.8-3.2t10-2 13.5-1l6.5-0.5 0.2-0.3 0.6-0.4 0.2-0.3-1-0.3-1-0.2v-1z" fill="#dfb72b" stroke="#dfb72b"/> <path d="m347.8 604.5-27.8-35.5 1.5 0.8q1.5 0.7 1.7 1l0.3 0.2 1-2 0.3 0.2 0.4 0.6 0.6 0.4 0.4 0.6 0.6 0.4 0.2 0.3 2 1 0.2 0.3 0.6 0.4 0.2 0.3h1l0.2-0.3 0.3-0.2h0.5l35.8 45.5q35.7 45.5 36.7 48t0.5 7.5-7.8 15.2q-7.2 10.3-19.7 22.8t-27.5 22-32 16-36.5 10-43.5 3-42.5-4.5-35.5-11.5-30.2-16.8q-13.3-9.2-25.3-21.2t-15.5-17-4-6l-0.5-1-0.3-0.2-0.4-0.6-0.6-0.4-0.4-0.6-0.3-0.2-1-2-0.3-0.2-0.4-0.6-0.3-0.2-0.3-1-0.2-1h2l0.2 1 0.3 1 0.3 0.2 0.4 0.6 0.6 0.4 0.4 0.6 0.6 0.4 0.4 0.6 0.6 0.4 0.4 0.6 0.3 0.2 7.7 5.2q7.8 5.3 20.3 9.8t35 9 45.5 6.5 33.5 2.3l10.5 0.2 0.2-5q0.3-5 0.6-21.5l0.2-16.5h0.5l0.3 0.2 0.4 0.6 0.3 0.2v20q0 14 0.3 18l0.2 4 15-0.2q15-0.3 22-0.8t29-3.5 26.2-10.7q4.3-7.8 6-9.3 1.8-1.5 3.8-7.7 2-6.3 2.2-12.6 0.3-6.2 2.8-12.7t1.8-11q-0.8-4.5 1.2-5.3 2-0.7 0.5-1.2l-1.5-0.5 2-1 1-0.3 1-0.2 8 2.2q8 2.3 9.5 2.8l4.5 1.5 2 1 1 0.3 1 0.2-0.2-1-0.3-1-0.3-0.2-0.4-0.6-0.6-0.4-0.4-0.6-0.3-0.2-1-2-0.3-0.2-0.4-0.6-0.6-0.4-0.4-0.6q-0.3-0.2-28-35.7z" fill="#a1791b" stroke="#a1791b"/> <path d="m558 776h1l0.8 8.5q0.7 8.5-4.8 23t-6.5 16.5-1.5 3l-0.5 1-0.3 1.5-0.2 1.5 14.5 4.2q14.5 4.3 31.5 12.8t28 17.5 18.2 17.3q7.3 8.2 11.8 17.7t5.5 14 0.5 12-4.8 11.7q-4.2 4.3-15.2 9.3t-31.5 9.5-44.5 6.5-49.5 1.5-35.7-1.8q-10.3-1.2-10.6-1.2h-0.2l0.2-0.5 0.3-0.5 0.3-0.2 0.2-0.3-0.2-0.3-0.6-0.4-0.2-0.3-3-1 0.2-0.3 0.3-0.2 0.3-1 0.2-1-1.5-0.2q-1.5-0.3-3.5-1.8t-3.2-4.8q-1.3-3.2-7.3-13.2t-6-19 2.3-18.5q2.2-9.5 3.2-9.5t3.2-7.5q2.3-7.5 2.6-6.5 0.2 1 1.2 0.8 1-0.3 3.8-6.6 2.7-6.2 5-7.2 2.2-1 2.4-2 0.3-1 2.6-3.2 2.2-2.3 10.7-4.8t11.3-5.8q2.7-3.2 5-5.4 2.2-2.3 5.2-2.8t6.5 0.8l3.5 1.2h7l-0.2-3.5q-0.3-3.5-0.3-4.5t-1.3-4.2q-1.2-3.3-3.4-9-2.3-5.8-1-6.3 1.2-0.5 1.4-2.5 0.3-2-0.4-2.8l-0.8-0.7-3-1-0.2-0.3-0.3-0.2-0.3-1-0.2-1 1 0.2 1 0.3 0.2 0.3 0.6 0.4 0.2 0.3h1l1-0.3 1-0.2v-2l3.5 1.8q3.5 1.7 10 1.2t7.5-1 3.5-1l2.5-0.5 2-1 0.2-0.3 0.6-0.4 0.4-0.6 0.6-0.4 0.2-0.3 2-1v-0.5l1.5-0.2q1.5-0.3 2.5-0.8t3.5-4.5 3.5-10.3q1-6.2 2-6.2zm-1 130q10-0.5 20.5 2t17.3 7.2q6.7 4.8 8.7 9.8t0 10-6.7 8.8q-4.8 3.7-15.3 7.2t-26.5 4-24-1.5-13.5-6-7.3-8.3q-1.7-4.2 0.3-8.7t8.7-9.7q6.8-5.3 17.3-9.8t20.5-5z" fill="#dcb329" stroke="#dcb329"/> <path d="m509 318.5h3l1 0.3 1 0.2 1.2 4q1.3 4 1.3 27t1.5 33.5 1 21 0 27.5 0.8 19l0.2 2-0.8 4q-0.7 4-0.7 17t-0.5 20-0.5 23.5-1.5 41.5-3 26.5-2.8 22.7q-1.2 21.3-4.4 23.6-3.3 2.2-4.3 4.7t-1.3 2.5h-0.2l-0.2-0.5q-0.3-0.5-0.6-0.5h-0.2l-2.5 2.2q-2.5 2.3-2.7 2.6l-0.6 0.4-0.4 0.6-0.3 0.2-1 2-0.3 0.2-0.4 0.6-0.3 0.2-0.3 1-0.2 1h-2l0.2-1 0.6-2 0.4-2 0.3-1 1.5-3q0.5-1 3-6t3.8-159l1.2-154 3.5-1.2q3.5-1.3 6.5-1.3z" fill="#a9821d" stroke="#a9821d"/> <path d="m519.2 457 0.8-4h1q1 0 1.8 3.5 0.7 3.5 1.2 2.5t1.5 3 1.3 3q0.2-1 2.4-0.5 2.3 0.5 3.3 1.5t1.5 0 2 7.5 1.8 11.5l0.2 3h3l0.2 2 0.3 2 0.3-0.2 0.2-0.3 0.5-0.3 0.5-0.2v60l-1.2 13q-1.3 13-1.8 11t-2 4-2.5 7-1.3 4.5q-0.2 3.5-1.7 3.5t-0.7 13q0.7 13 0.4 15-0.2 2-1.2 2t-1 1.5-2 1.7l-2 0.3-0.2 0.3-0.6 0.4-0.2 0.3 0.2 0.3 0.6 0.4 0.2 0.3-0.2 0.3-0.6 0.4-0.4 0.6-0.3 0.2-0.3 0.5-0.2 0.5-2 0.2q-2 0.3-3 0.6l-1 0.2 0.2 20.5q0.3 20.5 1.8 22.5t1.8 2.5l0.2 0.5v0.5l0.2 0.3 0.6 0.4 0.4 0.6 0.3 0.2 1 3 0.3 1 0.2 1 1.2 1q1.3 1 2.6 2 1.2 1 1.2 2t1.2 1.5q1.3 0.5 1.8 1.5l0.5 1 0.3 0.2 0.2 0.3 2 1h2l1-0.3 1-0.2v2l-1 0.2-1 0.3h-3l-2-1-3.5-0.5q-3.5-0.5-13-3t-12.3-5.2q-2.7-2.8-4.7-7.8t-3-6-1.5-8.5 0.5-14.5 2.3-10.5l1.2-3.5 1-0.2q1-0.3 1.8-2 0.7-1.8 4-4 3.2-2.3 4.4-23.6 1.3-21.2 2.8-22.7t3-26.5 1.5-41.5 0.5-23.5 0.5-20 0.7-17z" fill="#dab229" stroke="#dab229"/> <path d="m679.2 491 48.8-61 0.2 1.5 0.3 1.5 0.3-0.2 0.4-0.6 0.6-0.4 0.4-0.6 0.6-0.4 0.2-0.3h2l0.2 0.3 0.3 0.2 0.3-0.2 0.2-0.3 0.5-0.3 0.5-0.2-0.2 1q-0.3 1-39.8 51l-39.5 50-1 2-0.3 0.2-0.4 0.6-0.6 0.4-0.4 0.6-0.6 0.4-0.4 0.6-0.3 0.2-0.3 1-0.2 1 1-0.2 1-0.3 6-2 16-4q16-4 27.5-5.3 11.5-1.2 11.5-0.2t7.5 2 7 2.2q-0.5 1.3 8 1.3t9.5-0.3q1-0.2 0.5-1.4-0.5-1.3 4-3.3t7.7-2.7q3.3-0.8 3-1.8-0.2-1 4.8-1.2l5-0.3 0.5-0.3 0.5-0.2 1.8 38q1.7 38 2 39 0.2 1 1.2 1t0.8 1.5l-0.3 1.5-0.3 0.2-0.2 0.3 0.2 0.3 0.3 0.2 0.3 0.5 0.2 0.5-5-0.2q-5-0.3-18-0.8t-40-4-42.5-8-25.5-9.2q-10-4.8-10-5.8t-1-1.2l-1-0.3-0.2-0.3-0.6-0.4-0.4-0.6-0.6-0.4-0.4-0.6-0.6-0.4-0.4-0.6-0.6-0.4-0.4-0.6-0.6-0.4-0.4-0.6-0.3-0.2-0.3 0.2-0.2 0.3v0.5h-0.2q-0.3 0-0.8-1t-1-5.5 1.5-8 50.7-64.5z" fill="#f4ca31" stroke="#f4ca31"/> <path d="m242 517 0.5-15 0.5 3.5q0.5 3.5 1 5l0.5 1.5 1 2 1-2h0.5v115l30 1.8q30 1.7 52 5.7t24 4.5l2 0.5v0.5l-1 0.2-1 0.3-2 1 1.5 0.5q1.5 0.5-0.5 1.2-2 0.8-1.2 5.3 0.7 4.5-1.8 11t-2.8 12.7q-0.2 6.3-2.2 12.6-2 6.2-3.8 7.7-1.7 1.5-6 9.3-4.2 7.7-26.2 10.7t-29 3.5-22 0.8l-15 0.2-0.2-4q-0.3-4-0.3-18v-20l-0.3-0.2-0.4-0.6-0.3-0.2h-0.5v-136h0.5l1-6 0.5-15z" fill="#d4ad28" stroke="#d4ad28"/> <path d="m874 507v-1l2 0.2 2 0.3 0.2 0.3 0.6 0.4 0.4 0.6 0.6 0.4 0.4 0.6 0.6 0.4 0.2 0.3h2l0.5-0.3 0.5-0.2v0.2q0 0.3 17.2 21.6 17.3 21.2 18.3 28.2t-3.5 14.5-13.2 17.3q-8.8 9.7-22.8 20.2t-29.5 17.5-33.5 11-38 4.5-34-1.5-32-8-30-13-21.8-15.3q-9.7-8.2-18.7-18.7l-9-10.5-0.3-0.2-0.4-0.6-0.3-0.2-1-2-0.3-0.2-0.4-0.6-0.3-0.2-1-2-0.3-0.2-0.2-0.3v-1l0.2-0.3 0.3-0.2 0.3 0.2 0.4 0.6 0.6 0.4 0.4 0.6 0.6 0.4 0.4 0.6 0.6 0.4 0.4 0.6 0.6 0.4 0.4 0.6 0.6 0.4 0.2 0.3 1 0.3q1 0.2 1 1.2t10 5.8q10 4.7 25.5 9.2t42.5 8 40 4 18 0.8l5 0.2 26-1.8q26-1.7 28.5-2.2l2.5-0.5-2-0.3q-2-0.2-2-1.2t1.5-1.2q1.5-0.3 2-3 0.5-2.8 1.5-3 1-0.3 3-7 2-6.8 3-6.8t2-3.8q1-3.7 3.2-10.4 2.3-6.8 3.8-17.3t5.8-11.5l4.2-1v-2h5l12 3.2q12 3.3 13.5 3.8l1.5 0.5 2 1 3 1 2 1 0.2 0.3 0.3 0.2v-2l-0.3-0.2-0.4-0.6-0.6-0.4-0.4-0.6-0.3-0.2-1-2-0.3-0.2-0.4-0.6-0.6-0.4-0.4-0.6q-0.3-0.2-8.6-11l-8.2-10.7-0.2-0.3q-0.3-0.2-2.6-2.2-2.2-2-2.2-3z" fill="#a27b1b" stroke="#a27b1b"/> <path d="m494.2 828-0.2-1h1q1 0 1 1t0.8 1.5q0.7 0.5 0.7 2v1.5l0.3-0.2 0.2-0.3h1.5q1.5 0 2.3-2.7l0.7-2.8 0.3 0.2 0.4 0.6 0.6 0.4 0.2 0.3 1 0.3 1 0.2 0.2 1 0.3 1 2.3 3.2q2.2 3.3 2.4 3.6l0.6 0.4 0.2 0.3-3 1v0.5l-3.5-1.2q-3.5-1.3-6.5-0.8t-5.2 2.8q-2.3 2.2-5 5.4-2.8 3.3-11.3 5.8t-10.7 4.8q-2.3 2.2-2.6 3.2-0.2 1-2.4 2-2.3 1-5 7.2-2.8 6.3-3.8 6.6-1 0.2-1.2-0.8-0.3-1-2.6 6.5-2.2 7.5-3.2 7.5t-3.2 9.5q-2.3 9.5-2.3 18.5t6 19 7.3 13.2q1.2 3.3 3.2 4.8t3.5 1.8l1.5 0.2-0.2 1-0.3 1-0.3 0.2-0.2 0.3 3 1 0.2 0.3 0.6 0.4 0.2 0.3-0.2 0.3-0.3 0.2-0.3 0.5-0.2 0.5-3-0.2-3-0.3-3-0.5q-3-0.5-11.5-2t-24-6.5-23.3-9.7q-7.7-4.8-10.2-8.8t-1.5-13.5 5-18.5 11-17.5 18.7-18.3q11.8-9.7 28.8-18.2t32-12.8l15-4.2-0.2-1q-0.3-1-0.6-2z" fill="#ab851e" stroke="#ab851e"/> <path d="m541.8 564 1.2-13 0.8 38.5q0.7 38.5 7.7 54t8.5 20.5 1 12.5-1 9.5-0.8 2h-0.2v-0.2q0-0.3-1-0.3t-2.2 1.7q-1.3 1.8-6.6 5-5.2 3.3-5.7 2.6-0.5-0.8-2-0.8h-1.7q-0.3 0-0.6 0.5l-0.2 0.5-1.5-0.2-1.5-0.3-2-1-0.2-0.3-0.3-0.2-0.5-1q-0.5-1-1.8-1.5-1.2-0.5-1.2-1.5t-1.2-2q-1.3-1-2.6-2l-1.2-1-0.2-1-0.3-1-1-3-0.3-0.2-0.4-0.6-0.6-0.4-0.2-0.3v-0.5l1 0.2 1 0.3 1.5 0.5q1.5 0.5 5.5 0.5t7-1.5 4.2-5.2q1.3-3.8-0.7-18.8t-3.7-18.8q-1.8-3.7-6.3-4.2l-4.5-0.5-1.5 0.3-1.5 0.2 0.2-0.5 0.3-0.5 0.3-0.2 0.4-0.6 0.6-0.4 0.2-0.3-0.2-0.3-0.6-0.4-0.2-0.3 0.2-0.3 0.6-0.4 0.2-0.3 2-0.3q2-0.2 2-1.7t1-1.5 1.2-2q0.3-2-0.4-15-0.8-13 0.7-13t1.7-3.5q0.3-3.5 1.3-4.5t2.5-7 2-4 1.8-11z" fill="#deb62a" stroke="#deb62a"/> <path d="m218.2 498h1.8l-55.2 70.5q-55.3 70.5-55.8 71.5l-0.5 1-0.3 0.2-0.4 0.6-0.6 0.4-0.4 0.6-0.6 0.4-0.4 0.6-0.3 0.2-1 2-0.3 0.2-0.2 0.3h3l3-1 2-1 20-5q20-5 32-6t19 1.5 5 3.5 7 3 15.2-0.3q6.3-2.2 7.8-3.7t2.2-3.5q0.8-2 4-2.5 3.3-0.5 3.6-1.5 0.2-1 3.2-1.8 3-0.7 3.2-1l0.3-0.2 0.3 0.2 0.2 0.3h1l3-1 0.2-0.3 0.3-0.2h0.5v48l-0.2 16.5q-0.3 16.5-0.6 21.5l-0.2 5-10.5-0.2q-10.5-0.3-33.5-2.3t-45.5-6.5-35-9-20.3-9.8l-7.7-5.2-0.3-0.2-0.4-0.6-0.6-0.4-0.4-0.6-0.6-0.4-0.4-0.6-0.6-0.4-0.4-0.6-0.6-0.4q-0.2-0.3-0.7-0.6l-0.5-0.2-0.2-0.5q-0.3-0.5-0.6-0.5h-0.2l-0.2-0.5q-0.3-0.5-0.3-5.5t1-7.5 60.3-77l59.2-74.5 0.5-0.2q0.5-0.3 0.5-0.6v-0.2l0.5-0.2q0.5-0.3 0.5-0.6v-0.2l1-0.2 1-0.3 0.2-0.3 0.3-0.2 1-2 0.3-0.2 0.4-0.6 0.6-0.4q0.2-0.3 5-4.6 4.7-4.2 6.4-4.2z" fill="#f4ca31" stroke="#f4ca31"/> <path d="m776 488v-1h2l0.2 2.5 0.3 2.5h0.5l0.5 14.2q0.5 14.3 33 17.3t38 4 8 1.5l7.5 1.5v0.5h-5v2l-4.2 1q-4.3 1-5.8 11.5t-3.8 17.3q-2.2 6.7-3.2 10.4-1 3.8-2 3.8t-3 6.8q-2 6.7-3 7-1 0.2-1.5 3-0.5 2.7-2 3-1.5 0.2-1.5 1.2t2 1.2l2 0.3-2.5 0.5q-2.5 0.5-28.5 2.2l-26 1.8-0.2-0.5-0.3-0.5-0.3-0.2-0.2-0.3 0.2-0.3 0.6-0.4q0.2-0.3-0.8-0.6-1-0.2-1.2-2.2-0.3-2-2-40l-1.8-38 0.2-12q0.3-12 0.6-16l0.2-4h3v-1z" fill="#d8b029" stroke="#d8b029"/> <path d="m545.8 192h0.2l5.8 7q5.7 7 7.7 12.5t1.5 15-7 24.5-7 16l-2.5 5-0.3 0.2-0.2 0.3 12.5 0.5q12.5 0.5 20 1l7.5 0.5v0.5h-3v2l1 0.2 1 0.3-0.2 0.3-0.6 0.4-0.2 0.3-6.5 0.5q-6.5 0.5-13.5 1t-10 2-4.8 3.2l-1.7 1.8-0.3 1-0.2 1h-2l-0.2-1.5q-0.3-1.5-1.6-5.3-1.2-3.7-12.2-3-11 0.8-12 5.8t-4.5 5h-3.5v-0.5l-2-0.3-2-0.2v-1q0-1-2.5-2t-3-2.5l-0.5-1.5-0.2-5q-0.3-5-1.8-8t-8-18.5-7-24.5 1.2-14l1.8-5h0.2q0.3 0 0.6-0.5l0.2-0.5 1.5-0.2 1.5-0.3 0.2-0.3 0.3-0.2 1-2 0.3-0.2 0.2-0.3 1.2 0.3q1.3 0.2 3.6 0.2 2.2 0 2.7-2t20-2.8q19.5-0.7 22.7-2.4 3.3-1.8 3.8-2.8t0.8-1z" fill="#be9723" stroke="#be9723"/> <path d="m557 906q10-0.5 20.5 2t17.3 7.2q6.7 4.8 8.7 9.8t0 10-6.7 8.8q-4.8 3.7-15.3 7.2t-26.5 4-24-1.5-13.5-6-7.3-8.3q-1.7-4.2 0.3-8.7t8.7-9.7q6.8-5.3 17.3-9.8t20.5-5z" fill="#fee271" stroke="#fee271"/> <path d="m496.5 640.2 2.5-2.2v0.2q0 0.3 0.5 0.6l0.5 0.2-1.2 1.5q-1.3 1.5-1.8 3t-1.5 8.5-0.5 14.5 1.5 8.5 3 6 4.7 7.8q2.8 2.7 12.3 5.2t13 3l3.5 0.5 2 1h3l0.2-0.3q0.3-0.2 0.6-0.7l0.2-0.5 0.5-0.2q0.5-0.3 0.5-0.6v-0.2h1.5q1.5 0 2 0.8 0.5 0.7 5.7-2.6 5.3-3.2 6.6-5 1.2-1.7 2.2-1.7t1 0.3v0.2l-3.8 6.5q-3.7 6.5-7.2 9.5t-1 12 2 17.5-4 13.5-3.8 5.2l-0.2 0.3 6.2 6.3q6.3 6.2 6.6 6.4l0.4 0.6 0.3 0.2 3 6 0.3 1 0.2 1h-2l-0.2-1-0.3-1-0.3-0.2-0.4-0.6-0.6-0.4-0.4-0.6-0.3-0.2-1-2-4-4.5q-4-4.5-8.7-5.3-4.8-0.7-12.3 1-7.5 1.8-9 4-1.5 2.3-3 2.8t-1 1-0.7 1.2q-1.3 0.8-1.8 7.3t1.8 10.7q2.2 4.3 6.2 7.8t9 4 7.5 0.5h2.5l3-0.3 3-0.2v0.5l-2 1-0.2 0.3-0.6 0.4-0.4 0.6-0.6 0.4-0.2 0.3-2 1-2.5 0.5q-2.5 0.5-3.5 1t-7.8 0.8q-6.7 0.2-9-0.6l-2.2-0.7-4 1-0.2 0.3-0.6 0.4-0.2 0.3 0.2 0.3 0.6 0.4 0.2 0.3 1.2 0.7q1.3 0.8 1.6 2.8 0.2 2-2 2.5-2.3 0.5 0 6.3 2.2 5.7 3.4 9 1.3 3.2 1.3 4.2t0.3 4.5l0.2 3.5h-7v-0.5l3-1-0.2-0.3-0.6-0.4q-0.2-0.3-2.4-3.6l-2.3-3.2-0.3-1-0.2-1-1-0.2-1-0.3-0.2-0.3-0.6-0.4-0.4-0.6-0.3-0.2-0.7 2.8q-0.8 2.7-2.3 2.7h-1.5l-0.2 0.3-0.3 0.2v-1.5q0-1.5-1.3-2.5l-1.2-1-0.2-0.5q-0.3-0.5-0.6-0.5h-0.2l-0.2-0.5q-0.3-0.5-0.6-0.7-0.2-0.3-6-14.6-5.7-14.2-6.2-21.7t2.5-15.5 9.5-15 3-12.5-4-13.5 2-17-1.8-13.2q-4.2-4.3-7.4-10.6-3.3-6.2-3.8-15.7t3.8-20.5l4.2-11v1q0 1 1 0.8l1-0.3 0.2-0.3 0.3-0.2 1-2 0.3-0.2 0.4-0.6 0.6-0.4q0.2-0.3 2.7-2.6zm9.7 163q0.3-0.2 0.6 0 0.2 0.3-0.3 0.3t-0.3-0.3z" fill="#af8920" stroke="#af8920"/> <path d="m529.2 52-0.2-2 2.8 1.5q2.7 1.5 12.2 18.5t13.5 28 3.5 21-4.5 17-8.5 11-1 11 3.5 15.5-2.3 13.3q-2.2 4.7-2.2 5v0.2h-0.2q-0.3 0-0.8 1t-3.8 2.8q-3.2 1.7-22.7 2.4-19.5 0.8-20 2.8t-2.7 2q-2.3 0-3.6-0.2l-1.2-0.3-0.2 0.3-0.3 0.2-1 2-0.3 0.2-0.2 0.3-2 1-1 0.3-1 0.2 0.2-1 0.3-1 0.3-0.2 0.4-0.6 0.6-0.4 0.4-0.6 0.3-0.2 0.5-1q0.5-1 4.5-5t4-5.5-2.5-8.5-1.5-13.5 4.5-12l3.5-5.5 0.3-0.2 0.2-0.3-5.2-4.3q-5.3-4.2-9.3-11.7t-4-18 6.5-26 18.8-35.7q12.2-20.3 13-21 0.7-0.8 1.2 36.2t2.2 40.8q1.8 3.7 3.3 4.2t4-0.5 4.7-1.3q2.3-0.2 2.3-11.2t-4.5-30-4.8-21z" fill="#c49c24" stroke="#c49c24"/> <path d="m525.5 631.8 1.5-0.3 4.5 0.5q4.5 0.5 6.3 4.2 1.7 3.8 3.7 18.8t0.7 18.8q-1.2 3.7-4.2 5.2t-7 1.5-5.5-0.5l-1.5-0.5-1-0.3-1-0.2-0.2-0.5q-0.3-0.5-1.8-2.5t-1.8-22.5l-0.2-20.5 1-0.2q1-0.3 3-0.6l2-0.2 1.5-0.2z" fill="#fde482" stroke="#fde482"/> <path d="m495 281 1 0.5 1.5 0.3 1.5 0.2 0.5 1.5q0.5 1.5 3 2.5t2.5 2v1l2 0.2 2 0.3v0.5l-2 0.2q-2 0.3-7 1.8t-30 10-27.8 11.2q-2.7 2.8-3 5.8-0.2 3-2.7 4.2-2.5 1.3-1 2.3t2.5 2.7q1 1.8 0.2 2.3-0.7 0.5 0.3 0.5t1.5 1.5 3.2 1.7q2.8 0.3 3.3 1.6l0.5 1.2h-1v0.2q0 0.3-23.5 12.8t-36.5 21-48.2 37.8q-35.3 29.2-47.6 37-12.2 7.7-25.7 12.2l-16.5 5.5-0.2 0.3-0.6 0.4-0.2 0.3 0.2 0.3 0.3 0.2 1 2 0.3 0.2 0.4 0.6 0.6 0.4 0.2 0.3 38.8 49.3q38.7 49.2 39.2 50.2l0.5 1 0.3 0.2 0.4 0.6 0.6 0.4 0.4 0.6 0.6 0.4 0.4 0.6 0.3 0.2 0.3 0.5 0.2 0.5h-0.5l-0.3 0.2-0.2 0.3h-1l-0.2-0.3-0.6-0.4-0.2-0.3-2-1-0.2-0.3-0.6-0.4-0.4-0.6-0.6-0.4-0.4-0.6-0.3-0.2-1 2-0.3-0.2q-0.2-0.3-1.7-1l-1.5-0.8h-0.2q-0.3 0-33.3-42l-33-42-0.3-0.2-0.4-0.6-0.6-0.4-0.4-0.6-0.6-0.4-0.4-0.6-0.3-0.2-1-2-0.3-0.2-0.4-0.6-0.3-0.2-0.3 0.2-0.4 0.6-0.3 0.2-0.3 16-0.2 16h-0.5l-1 2-1-2-0.5-1.5q-0.5-1.5-1-5l-0.5-3.5-1 30-1 6h-0.5l-0.2-31.5-0.3-31.5-0.3 0.2-0.4 0.6-0.6 0.4-0.4 0.6-0.6 0.4-0.4 0.6-0.6 0.4-0.4 0.6-0.6 0.4-0.4 0.6-0.3 0.2-6.7 8.8q-6.8 8.7-7.3 9l-0.5 0.2h-1.8q-1.7 0-6.4 4.2-4.8 4.3-5 4.6l-0.6 0.4-0.4 0.6-0.3 0.2-1 2-0.3 0.2-0.4 0.6-0.6 0.4-0.4 0.6-0.6 0.4-0.2 0.3-1 0.3-1 0.2 0.2-1 0.3-1 0.3-0.2 0.2-0.3 1-0.3 1-0.2 0.2-1 0.3-1 0.3-0.2 0.4-0.6 0.6-0.4 0.4-0.6 0.3-0.2 0.5-1q0.5-1 13.5-17.5l13-16.5 0.3-0.2 0.4-0.6 0.6-0.4 0.4-0.6 0.3-0.2 1-2 0.3-1 0.2-1-6-0.2q-6-0.3-17.8-7-11.7-6.8-12.7-11.3t1.5-9.5 6.8-7.2q4.2-2.3 19.7-5.3t26.5-8.5 33.8-24.2q22.7-18.8 44-35.6 21.2-16.7 40.7-28.7t40.5-21.5 48-17.5 30-8 4 0.5z" fill="#d3ab2a" stroke="#d3ab2a"/> <path d="m548.5 763.5 4 4.5 1 2 0.3 0.2 0.4 0.6 0.6 0.4 0.4 0.6 0.3 0.2 0.3 1 0.2 1h2l0.2 0.5q0.3 0.5 0.6 1l0.2 0.5h-1q-1 0-2 6.2-1 6.3-3.5 10.3t-3.5 4.5-2.5 0.8l-1.5 0.2-3 0.2-3 0.3h-2.5q-2.5 0-7.5-0.5t-9-4-6.2-7.8q-2.3-4.2-1.8-10.7t1.8-7.3q1.2-0.7 0.7-1.2t1-1 3-2.8q1.5-2.2 9-4 7.5-1.7 12.3-1 4.7 0.8 8.7 5.3z" fill="#f2cc36" stroke="#f2cc36"/> </g> </svg>