<?xml version='1.0' encoding='utf-8'?>
<svg xmlns="http://www.w3.org/2000/svg" viewBox="0 0 330.5 197.79"> <path d="m141.59 197.32c-0.25653-0.25653-2.919-0.59406-5.9167-0.75l-5.4503-0.2836v-5.976c0-7.8272-1.7164-8.2394-8.7368-2.0981-2.8759 2.5158-5.7847 4.5741-6.4641 4.5741-0.67938 0-4.5121-2.8164-8.5172-6.2586-11.242-9.6627-10.552-9.2494-12.551-7.5137-2.4114 2.0945-6.9219 3.0082-9.0987 1.8433-1.0045-0.5376-5.7662-3.9147-10.582-7.5048-6.9174-5.1572-9.125-6.3294-10.517-5.5842-1.4356 0.76831-3.502-0.71405-11.148-7.9973l-9.3857-8.9405 6.8571-6.6149c4.4282-4.2718 6.5137-6.9584 5.8875-7.5846-0.5929-0.5929-11.083-0.84827-27-0.65717l-26.03 0.3125-0.5796-5c-3.4918-30.121-3.0411-79.318 0.88165-96.25l0.5213-2.25h58.282l8.5895-6.1976c4.7242-3.4087 8.8329-6.5454 9.1303-6.9706 0.29746-0.42514 2.5474-1.4687 5-2.3191 2.4526-0.85037 5.1342-1.8231 5.9592-2.1617 0.825-0.33856 2.406-0.73898 3.5133-0.88986s11.907-2.8585 24-6.0169 24.318-6.3027 27.168-6.9874l5.1817-1.2448 12.251 9.872 18.092-9.8104 13.147 3.4579c7.2308 1.9018 26.844 6.8146 43.586 10.917l30.439 7.4595 15.122 12.868 21.731 0.012c25.125 0.013794 22.049-1.7309 23.817 13.512 2.5377 21.88 2.2423 57.758-0.68338 83l-0.5795 5-44.814-0.6377-10.209 9.5689-10.209 9.5688h-20.86l-9.5417 6.1194c-8.2025 5.2606-9.8095 5.9522-11.45 4.9276-1.629-1.0173-3.1217-0.44775-10.197 3.8911-4.94 3.0294-8.9223 4.8397-9.8573 4.4808-0.93462-0.35864-5.1057 1.5344-10.318 4.6824-7.683 4.6408-9.8336 5.4451-17.656 6.603-7.4273 1.0995-9.2319 1.7319-10.864 3.807-1.3658 1.7364-2.9366 2.4885-5.1968 2.4885-2.4397 0-3.7869 0.74054-5.4574 3-1.6859 2.2803-3.0105 3-5.5214 3-1.8169 0-3.5133-0.2099-3.7698-0.46643zm6.4846-6.0072c0.41553-1.0828-0.79746-1.8783-4.5745-3-7.6155-2.2615-8.777-2.0665-8.777 1.4736v3h6.393c4.7093 0 6.5419-0.38812 6.9585-1.4736zm-27.352-8.5217c0-0.82214-13.925-4.4134-14.578-3.7598-0.27974 0.27972 1.5787 2.3459 4.1298 4.5915l4.6384 4.0829 2.905-2.1478c1.5978-1.1813 2.905-2.4264 2.905-2.7669zm48.655-14.505c6.1694-9.9 11.133-18.315 11.031-18.7-0.26594-0.99951-11.754-9.8003-12.793-9.8003-0.93288 0-31.919 41.284-31.392 41.826 0.90346 0.92847 17.349 5.0463 19.468 4.8746 2.0483-0.16608 4.3808-3.2678 13.686-18.2zm-3.9231-12.036c-2.0527-1.3948-3.7179-3.0823-3.7005-3.75 0.058105-2.2335 4.78-6.7235 6.412-6.0972 1.8775 0.72046 2.0083 2.5298 0.30638 4.2372-1.0006 1.0038-0.79128 1.6006 1.0488 2.9912 1.526 1.1531 2.0783 2.3115 1.643 3.446-0.85852 2.2373-1.2924 2.1744-5.7097-0.82715zm12.06 24.025c0.16086-0.13214 0.16086-3.9192 0-8.4157l-0.2925-8.1754-5.25 8.5612c-2.8875 4.7087-5.25 8.7972-5.25 9.0856 0 0.482 10.127-0.50867 10.792-1.0558zm-30.582-21.239c8.4592-11.412 15.692-21.261 16.073-21.885 0.77785-1.2748-14.438-13.536-17.051-13.74-0.967-0.0755-9.7346 9.6806-21.905 24.374-11.161 13.475-20.3 24.737-20.31 25.026-0.022003 0.66449 22.732 6.7775 25.648 6.8901 1.6932 0.065552 5.5167-4.4381 17.545-20.666zm27.622 5.4032c-2.8875-1.8681-5.25-3.7619-5.25-4.2084 0-0.44659 1.3863-2.697 3.0806-5.001 2.6328-3.5801 3.3642-4.0373 5.0311-3.1451 1.916 1.0254 1.9116 1.0986-0.24875 4.1325-2.1564 3.0283-2.1619 3.1165-0.28116 4.5166 1.055 0.7854 2.5694 1.8022 3.3655 2.2597 1.0573 0.60754 1.192 1.3722 0.49998 2.837-0.91446 1.9356-1.1296 1.8873-6.1973-1.3913zm52 26.906 3.75-2.3452v-35.262l-16.626-16.144c-16.513-16.034-16.621-16.168-15.883-19.607 0.4086-1.9042 0.90445-3.6389 1.1019-3.8547 0.865-0.94574 3.4074 2.347 3.4074 4.4131 0 1.6381 4.4833 6.5446 16 17.51l16 15.235v18.974c0 21.574-0.77275 20.397 9.0199 13.747l5.9801-4.061v-45.916l-17.547-18.229c-16.615-17.261-17.531-18.416-17.25-21.755 0.23256-2.7606 0.73131-3.5263 2.2971-3.5263 1.4884 0 2.1279 0.83337 2.5 3.2576 0.39148 2.5506 4.244 7.1574 17.75 21.225l17.25 17.968v24.025c0 13.214 0.35426 24.025 0.78722 24.025 0.43294 0 3.9205-1.9244 7.75-4.2766l6.9628-4.2767 0.5336-53.898-25.259-25.274c-13.893-13.901-25.49-25.274-25.772-25.274-0.28169 0-3.8022 2.475-7.8233 5.5-4.0668 3.0594-8.3617 5.5-9.6787 5.5-1.8285 0-2.4397 0.61584-2.684 2.7043-0.25087 2.1439-2.9797 4.7337-13.171 12.5l-12.855 9.7957h-22.706l-8.2922-7.75c-4.5607-4.2624-8.2922-8.2-8.2922-8.75 0-0.54999 6.075-5.5287 13.5-11.064l13.5-10.064 1-17.613 27.542-15.259-2.7708-2.319c-6.8813-5.7594-3.9779-5.9788-38.366 2.8995l-31.405 8.108-21 15.312-29.668 0.5c-16.318 0.27499-29.969 0.80164-30.337 1.1703-2.6925 2.6988-4.1698 70.398-1.8947 86.83l0.9 6.5 53.71 0.533 9.6342 8.9826 9.6342 8.9827 15.011-14.776c8.256-8.1267 16.452-16.065 18.213-17.641l3.2025-2.865 10.297 6.7346 10.298 6.7346 5.2413-5.8389c4.8205-5.3701 5.4099-5.7336 7.3407-4.5278 4.8948 3.0568 38.149 29.62 38.621 30.85 0.28418 0.7406-0.20781 2.4522-1.0933 3.8036-1.2468 1.9029-1.6099 5.0804-1.6099 14.087v11.63l4.75-2.7625c2.6125-1.5193 6.4375-3.8177 8.5-5.1075zm-105.2 5.1543c1.6227-0.83917 2.9503-1.6825 2.9503-1.8741 0-0.19165-4.0787-3.8368-9.0638-8.1003l-9.0638-7.7519-2.9521 2.8283c-1.6236 1.5555-2.8324 3.1748-2.6862 3.5984 0.33662 0.97504 15.99 12.683 17.066 12.764 0.4398 0.033447 2.1273-0.62585 3.75-1.465h1.5e-5zm24.236-23.468c8.6427-10.447 15.714-19.399 15.714-19.893 0-0.49457-3.6684-3.4089-8.152-6.4764l-8.1519-5.5771-10.598 9.8954c-5.8289 5.4424-13.891 13.232-17.915 17.311l-7.3171 7.416 9.6284 8.1589c5.2956 4.4874 9.9546 8.1589 10.353 8.1589 0.39865 0 7.7961-8.5472 16.439-18.994zm-3.7861-11.164c-2.75-2.2122-5.126-4.5554-5.28-5.2069-0.15396-0.65161 1.2374-2.6554 3.0919-4.4529 2.9878-2.8958 3.5195-3.0902 4.668-1.7064 1.0792 1.3005 0.98582 1.9045-0.55862 3.6111-1.8254 2.017-1.792 2.1026 2.112 5.41 3.5273 2.9883 3.8005 3.5271 2.4667 4.8639-1.3344 1.3374-2.052 1.0593-6.5-2.5188zm-42.57 17.122 5.4304-4.9456-6.3306-5.759c-3.4818-3.1675-6.6005-5.8507-6.9304-5.9628-0.32988-0.11206-3.0748 2.0393-6.0998 4.7808l-5.5 4.9846 6.5 5.9359c3.575 3.2647 6.725 5.9304 7 5.9238 0.27499-0.007019 2.9437-2.2377 5.9304-4.9578zm201.55-16.946 8.9408-8.9824 47.076-0.5352 0.6982-5.5c1.5498-12.21 2.0757-51.647 0.88672-66.5-0.66043-8.25-1.4485-16.012-1.7512-17.25-0.54965-2.2467-0.58209-2.25-22.192-2.259l-21.642-9e-3 -7.5-6.4756c-8.9231-7.7044-6.8773-7.003-56.831-19.482l-36.331-9.0757-45.338 24.91-0.5 8.5991-0.5 8.599-13.214 9.8098-13.214 9.8097 3.4667 3.36 3.4666 3.36 9.0629-6.2805c5.4428-3.7718 9.6692-6.0478 10.581-5.6981 2.573 0.9873 1.0046 2.8568-7.5058 8.9465-10.415 7.4524-9.9627 8.6348 3.3018 8.6348h9.1998l12.145-9.0863 12.145-9.0862 0.2829-10.652c0.24193-9.1064 0.53033-10.699 1.9878-10.978 1.4587-0.27933 1.7475 0.71835 2 6.9082 0.16959 4.1574 0.76668 7.3904 1.4037 7.6008 0.60973 0.20142 4.7061-2.3501 9.103-5.67 4.3969-3.32 8.62-6.0362 9.3846-6.0362 0.76462 0 13.431 12.034 28.147 26.743l26.757 26.743v54.514h17.542l8.9408-8.9824z" fill="#ff7f00"/> </svg>